<svg version="1" xmlns="http://www.w3.org/2000/svg" width="725.333" height="725.333" viewBox="0 0 544.000000 544.000000"><path d="M30.6 1.1c-6.2 1.5-15.3 6.8-19.7 11.6-2.2 2.4-5.5 7.4-7.2 11.1L.5 30.5v483l3.2 6.7c4.4 9.3 10 15.1 19.1 19.6l7.6 3.7h483.2l7.6-3.7c9.1-4.5 14.7-10.3 19.1-19.6l3.2-6.7v-483l-3.2-6.7c-4.4-9.3-10-15.1-19.1-19.6L513.6.5 274.1.3C131.8.3 32.9.6 30.6 1.1zM250.8 143l3.2 2v8.7c0 8.1-.2 8.9-2.7 11.5-2.6 2.7-2.9 2.8-14 2.8H226v68c0 37.4.4 68 .8 68s31-27.9 68-62.1l67.2-62.1V168h-9.9c-8.4 0-10.2-.3-12.5-2.1-2.4-1.9-2.6-2.5-2.6-10.7 0-8 .2-8.8 2.7-11.4l2.7-2.8h121.4l3.1 2.6c2.9 2.4 3.1 3 3.1 9.4v6.8L322.9 297.9 175.8 436h-12.5c-12.4 0-12.5 0-15.4-2.9l-2.9-2.9V168h-10.2c-9.1 0-10.4-.2-12.5-2.2-2.1-1.9-2.3-3-2.3-10.9 0-8.5.1-8.8 3.1-11.3l3.1-2.6h60.6c58.7 0 60.8.1 64 2z"/></svg>