<svg xmlns="http://www.w3.org/2000/svg" width="107" height="25" viewBox="0 0 107 25" fill="none">
<path d="M15.8767 24.62H3.59874C1.61121 24.62 0 23.0088 0 21.0212V7.04946C0 5.06192 1.61121 3.45068 3.59874 3.45068H21.169L15.8767 24.62Z" fill="#006DA8"/>
<path d="M15.97 0H28.248C30.2355 0 31.8467 1.61123 31.8467 3.59879V17.5705C31.8467 19.5581 30.2355 21.1693 28.248 21.1693H10.6777L15.97 0Z" fill="#9F73FF"/>
<path d="M15.97 0H28.248C30.2355 0 31.8467 1.61123 31.8467 3.59879V17.5705C31.8467 19.5581 30.2355 21.1693 28.248 21.1693H10.6777L15.97 0Z" fill="url(#paint0_linear_364_527)"/>
<path d="M39.0645 3.61504H41.6547L45.4799 16.1147L49.5159 3.61504H51.805L55.6302 16.1147L59.6361 3.61504H62.136L57.0157 18.976H54.305L50.6002 7.56071L46.7449 18.976L44.0342 19.0061L39.0645 3.61504Z" fill="white"/>
<path d="M78.2072 3.61504V18.976H76.0687L75.7374 16.5062C74.4523 18.2732 72.6953 19.1567 70.4665 19.1567C69.0408 19.1567 67.7657 18.8455 66.6413 18.223C65.5369 17.6006 64.6634 16.697 64.0209 15.5123C63.3984 14.3276 63.0872 12.922 63.0872 11.2955C63.0872 9.74939 63.3984 8.38398 64.0209 7.19927C64.6634 6.01457 65.5469 5.0909 66.6714 4.42827C67.7959 3.76564 69.0609 3.43433 70.4665 3.43433C71.6913 3.43433 72.7455 3.66524 73.629 4.12708C74.5125 4.58891 75.2153 5.22142 75.7374 6.02461L76.0687 3.61504H78.2072ZM70.7074 16.958C71.6913 16.958 72.5648 16.7271 73.3278 16.2653C74.1109 15.7833 74.7133 15.1207 75.135 14.2774C75.5567 13.4139 75.7675 12.4401 75.7675 11.3558C75.7675 10.2514 75.5567 9.26748 75.135 8.40406C74.7133 7.52055 74.1109 6.83784 73.3278 6.35592C72.5648 5.87401 71.6913 5.63306 70.7074 5.63306C69.1814 5.63306 67.9464 6.16517 67.0027 7.22939C66.079 8.27354 65.6172 9.62892 65.6172 11.2955C65.6172 12.9621 66.079 14.3276 67.0027 15.3918C67.9464 16.4359 69.1814 16.958 70.7074 16.958Z" fill="white"/>
<path d="M89.3726 3.61504V6.02461H88.1377C86.6719 6.02461 85.6177 6.51656 84.9751 7.50047C84.3527 8.48437 84.0414 9.6992 84.0414 11.1449V18.976H81.5716V3.61504H83.7101L84.0414 5.93425C84.4832 5.23146 85.0555 4.66923 85.7583 4.24756C86.461 3.82588 87.4349 3.61504 88.6798 3.61504H89.3726Z" fill="white"/>
<path d="M99.3718 3.43433C100.797 3.43433 102.062 3.74556 103.167 4.36803C104.291 4.9905 105.165 5.89409 105.787 7.07879C106.43 8.2635 106.751 9.66908 106.751 11.2955C106.751 12.8417 106.43 14.2071 105.787 15.3918C105.165 16.5765 104.291 17.5002 103.167 18.1628C102.042 18.8254 100.777 19.1567 99.3718 19.1567C98.1269 19.1567 97.0627 18.9359 96.1791 18.4941C95.2956 18.0323 94.6029 17.4098 94.1009 16.6267V24.9999H91.6311V3.61504H93.7696L94.1009 6.08485C95.386 4.31783 97.143 3.43433 99.3718 3.43433ZM99.1309 16.958C100.657 16.958 101.882 16.4359 102.805 15.3918C103.749 14.3276 104.221 12.9621 104.221 11.2955C104.221 9.62892 103.749 8.27354 102.805 7.22939C101.882 6.16517 100.657 5.63306 99.1309 5.63306C98.147 5.63306 97.2635 5.87401 96.4803 6.35592C95.7173 6.81776 95.125 7.48039 94.7033 8.34382C94.2816 9.18716 94.0708 10.151 94.0708 11.2353C94.0708 12.3397 94.2816 13.3336 94.7033 14.2171C95.125 15.0806 95.7173 15.7532 96.4803 16.2351C97.2635 16.7171 98.147 16.958 99.1309 16.958Z" fill="white"/>
<defs>
<linearGradient id="paint0_linear_364_527" x1="17.9038" y1="17.3271" x2="35.298" y2="3.15949" gradientUnits="userSpaceOnUse">
<stop stop-color="#01A4FF"/>
<stop offset="0.791667" stop-color="#01FFC2"/>
</linearGradient>
</defs>
</svg>